<svg width="229" height="228" viewBox="0 0 229 228" fill="none" xmlns="http://www.w3.org/2000/svg">
<path d="M38.8697 76.2551C44.0233 78.8328 49.1758 81.9519 53.4989 86.2668C55.6287 88.4283 57.5002 90.8279 59.0761 93.4176C60.6091 95.9659 61.9114 98.6448 62.9675 101.423C65.1568 107.262 66.3448 113.303 67.2666 119.223C67.5081 120.692 67.7259 122.16 67.931 123.623L68.5213 128.004L63.1443 128.67C62.2822 121.779 61.6069 114.698 62.1986 107.515C62.762 100.363 64.6498 93.0753 68.4796 86.6922C69.4408 85.0873 70.5225 83.5571 71.7155 82.1146C72.9117 80.6454 74.2409 79.2887 75.6864 78.0617C76.0384 77.739 76.421 77.4591 76.7954 77.1671C77.1749 76.8828 77.5401 76.5743 77.9333 76.3116C78.7173 75.7822 79.495 75.2362 80.3158 74.7762C81.926 73.8222 83.6043 72.9872 85.3373 72.2779C87.039 71.5773 88.7785 70.9712 90.5477 70.4623C92.2998 69.9752 94.059 69.5249 95.8133 69.1723C99.3257 68.4295 102.816 67.9286 106.257 67.4365L106.596 73.9299L103.53 73.8643C100.198 73.802 96.8354 73.6242 93.4471 73.3516C89.9788 73.1035 86.5341 72.5965 83.1421 71.8349C79.566 71.0395 76.1393 69.6842 72.9898 67.8195C71.3628 66.8189 69.8585 65.6328 68.5076 64.2852C67.1621 62.9301 65.991 61.4137 65.0211 59.7711C63.1053 56.5618 61.9303 53.2041 60.926 49.9742C59.9119 46.7244 59.0673 43.4246 58.3956 40.0879C57.7071 36.7569 57.2154 33.3886 56.9229 30.0003C56.782 28.3068 56.6723 26.6114 56.6192 24.9142L56.5801 23.6416C56.57 23.2175 56.5808 22.7925 56.545 22.3691C56.496 21.5214 56.4854 20.6725 56.4542 19.8235L62.2358 20.096C61.7498 26.2901 61.2299 32.5901 60.031 38.9208C59.8675 39.7107 59.7179 40.504 59.5414 41.292L58.9484 43.6524L58.271 46.0033L57.5006 48.3388C56.4088 51.4758 55.0151 54.5004 53.339 57.3705C50.0979 62.7959 45.6525 67.4107 40.3435 70.8615C38.2909 72.2356 36.0454 73.2995 33.6799 74.0187C32.8161 74.265 31.9339 74.4424 31.0418 74.5491C30.6442 74.5923 30.2696 74.6204 29.9178 74.6334L29.658 74.6409L29.4478 74.6147C29.3002 74.5946 29.1578 74.5753 29.0206 74.5567C27.3197 74.3092 26.3753 74.0145 27.6858 72.7317C27.8753 72.5538 28.0758 72.3877 28.286 72.2344C28.3959 72.1493 28.5512 72.0529 28.6503 71.9723C28.7424 71.8956 28.8386 71.8156 28.9388 71.7321C29.3396 71.4013 29.8238 71.0779 30.3583 70.6952C30.8883 70.3034 31.5044 69.9309 32.1513 69.4703C32.4796 69.2522 32.8226 69.0243 33.1803 68.7867C33.5312 68.5392 33.8984 68.288 34.2821 68.033C36.2674 66.6773 38.1615 65.1936 39.9521 63.5915C41.7809 61.9812 43.4823 60.2329 45.0412 58.3622C47.1659 55.7822 48.9518 52.9432 50.3557 49.9138C51.775 46.8199 52.9041 43.602 53.7288 40.3013C55.499 33.6488 56.2994 26.6516 57.0506 19.5989L57.0511 19.5949C57.1135 19.0106 57.398 18.4722 57.8462 18.0899C58.2945 17.7076 58.8725 17.5105 59.462 17.5388C60.0515 17.5671 60.6079 17.8187 61.0171 18.2421C61.4263 18.6656 61.6574 19.2287 61.6631 19.8163C61.6737 20.9605 61.6356 22.1068 61.7162 23.25C61.789 24.3928 61.8754 25.5341 61.9916 26.6725C62.2137 28.9503 62.5438 31.2143 62.9206 33.4665C63.6662 37.968 64.7589 42.4057 66.189 46.7402C67.1038 49.7044 68.292 52.5779 69.7385 55.3241C70.4189 56.5653 71.2209 57.7364 72.133 58.8203C73.0229 59.8387 74.0088 60.77 75.0771 61.6013C76.0797 62.3484 77.1442 63.0095 78.2592 63.5773C79.4255 64.149 80.6294 64.6413 81.8625 65.0511C84.4431 65.8711 87.0951 66.4489 89.7838 66.7771C95.2908 67.4906 101.014 67.5948 106.771 67.8064L106.805 67.8076C107.526 67.8341 108.211 68.1294 108.723 68.6351C109.236 69.1408 109.539 69.8199 109.572 70.5376C109.605 71.2554 109.367 71.9593 108.903 72.5099C108.439 73.0605 107.785 73.4174 107.069 73.5099C102.698 74.0747 98.398 74.6655 94.2652 75.6242C90.1495 76.6036 86.1639 77.8873 82.6444 79.9021C81.1431 80.7559 79.7256 81.7479 78.4103 82.8652C77.1032 84.0077 75.9058 85.2689 74.8336 86.6324C72.6932 89.4522 71.0106 92.5889 69.847 95.9281C68.6561 99.3164 67.8879 102.837 67.5596 106.412C67.2183 110.046 67.1425 113.7 67.3327 117.344C67.4854 120.892 67.8479 124.461 68.2684 128.043L68.2711 128.067C68.3463 128.709 68.1627 129.355 67.7605 129.863C67.3582 130.371 66.7701 130.699 66.1251 130.776C65.4801 130.852 64.8309 130.672 64.3198 130.272C63.8086 129.873 63.4772 129.289 63.3983 128.647C62.6921 122.894 61.9467 117.191 60.611 111.692C59.9835 108.956 59.1817 106.262 58.2104 103.627C57.2408 101.039 56.0287 98.5469 54.5901 96.1847C54.2126 95.6137 53.8619 95.0214 53.4647 94.4651L52.2373 92.823C51.374 91.7664 50.4559 90.7555 49.4868 89.7943C47.4811 87.8804 45.283 86.177 42.9273 84.7108C41.7411 83.961 40.5182 83.2539 39.2691 82.5801C38.6447 82.2433 38.0142 81.9142 37.3776 81.5928L36.4189 81.1153L35.9396 80.8813L35.4843 80.6783C34.8903 80.3939 34.2385 80.1638 33.6053 79.9146C32.9465 79.7009 32.3024 79.458 31.6262 79.2739C30.2949 78.8616 28.9202 78.5488 27.5464 78.2524C24.8819 77.6994 22.1785 77.3518 19.4603 77.213C16.8257 77.0839 14.226 77.2382 12.0653 77.9831L11.4442 75.5232L11.4422 75.3606H11.4447H11.4599H11.4802H11.5209L11.6023 75.3612C11.6551 75.3621 11.7092 75.3634 11.7852 75.3596L12.2057 75.3459L13.0609 75.3107C13.6345 75.2852 14.2048 75.2598 14.7719 75.2346C15.9104 75.1895 17.0351 75.1449 18.1458 75.1009C20.3709 75.0209 22.5433 74.9729 24.6658 74.9282C25.388 74.9012 26.1112 74.9293 26.829 75.0123C27.1074 75.0345 27.2738 75.118 27.5306 75.1172C27.6977 75.1125 27.8623 75.1588 28.0023 75.2498L28.4237 74.7602C28.3641 74.9837 28.2817 75.0821 28.321 75.1022C28.3478 75.1222 28.4941 75.059 28.6279 74.8453C28.644 74.8196 28.6543 74.7907 28.6579 74.7606C28.6615 74.7305 28.6584 74.6999 28.6488 74.6712C28.6392 74.6424 28.6233 74.6161 28.6023 74.5942C28.5813 74.5722 28.5556 74.5552 28.5272 74.5443C28.4988 74.5333 28.4683 74.5288 28.438 74.531C28.4076 74.5332 28.3781 74.542 28.3515 74.5569C28.325 74.5717 28.3021 74.5923 28.2845 74.617C28.2668 74.6417 28.2549 74.67 28.2495 74.6998L28.1182 75.438C28.0938 75.5745 27.9087 75.7831 27.5649 76.0149C27.3263 76.2086 27.0664 76.3747 26.7903 76.5101C25.9391 76.9245 25.0414 77.2365 24.1161 77.4394C22.1117 77.8984 20.0929 78.3042 18.0442 78.6901C17.0205 78.8823 15.9896 79.0672 14.9516 79.2449L13.3807 79.5041L12.5734 79.6272L12.1531 79.6865C11.9953 79.7072 11.7593 79.7282 11.5653 79.7448C10.8702 79.8044 10.1762 79.6201 9.60336 79.2237C9.03053 78.8274 8.615 78.244 8.42877 77.5747C8.24255 76.9053 8.29736 76.1922 8.58371 75.5589C8.87006 74.9256 9.36991 74.4119 9.99665 74.107L10.197 74.0109C11.8114 73.2629 13.5262 72.752 15.2879 72.4942C16.1039 72.3956 16.9363 72.2686 17.7365 72.2395C18.1395 72.2175 18.5467 72.1848 18.947 72.1745L20.1419 72.1649C23.3125 72.1961 26.4708 72.5636 29.5633 73.2611C31.1258 73.5968 32.6705 74.0102 34.1916 74.4996L35.3453 74.883L36.504 75.322C36.8873 75.4584 37.2819 75.6435 37.6714 75.812L38.2562 76.07L38.7773 76.3201C38.8073 76.2975 38.8355 76.2766 38.8697 76.2551Z" fill="#65BA36"/>
<path d="M175.864 89.566C178.551 92.7735 180.718 96.3796 182.286 100.254C182.478 100.739 182.685 101.217 182.862 101.707L183.334 103.201C183.484 103.701 183.66 104.193 183.785 104.699L184.131 106.229C184.237 106.741 184.38 107.243 184.451 107.762L184.665 109.316L184.769 110.093C184.805 110.349 184.84 110.608 184.858 110.893C184.901 111.452 184.922 112.029 184.907 112.63C184.893 113.71 184.717 114.782 184.384 115.811C184.177 116.41 183.901 116.983 183.561 117.518C183.181 118.088 182.722 118.602 182.196 119.042L182.158 119.073C181.723 119.437 181.187 119.661 180.621 119.716C180.056 119.772 179.486 119.655 178.988 119.382C178.49 119.11 178.087 118.693 177.831 118.188C177.574 117.683 177.478 117.112 177.553 116.551C177.906 113.953 178.406 111.376 179.052 108.834C180.103 104.583 181.732 100.496 183.893 96.6841C186.108 92.787 189.002 89.3138 192.44 86.4271C195.96 83.5316 200.026 81.3653 204.398 80.0554C208.89 78.7258 213.638 78.5036 218.235 79.4078C218.911 79.5466 219.526 79.8907 219.996 80.3927C220.466 80.8947 220.768 81.5297 220.86 82.21C220.952 82.8903 220.83 83.5822 220.51 84.1902C220.19 84.7981 219.688 85.2921 219.074 85.6037L219.013 85.6342C217.517 86.3702 215.913 86.8672 214.262 87.1068C212.744 87.3188 211.208 87.3797 209.678 87.2886C208.211 87.2163 206.814 87.0431 205.471 86.8514C204.131 86.6553 202.853 86.4645 201.465 86.2122C199.47 85.878 197.517 85.3279 195.641 84.5719C194.614 84.1428 193.632 83.6141 192.71 82.9934C191.768 82.3533 190.898 81.6135 190.116 80.7868C188.664 79.2029 187.478 77.3965 186.603 75.437C185.792 73.627 185.156 71.7444 184.702 69.8146C182.872 62.3364 183.027 54.5129 185.151 47.1122L185.154 47.1014C185.34 46.4564 185.711 45.8796 186.222 45.442C186.733 45.0045 187.362 44.7254 188.03 44.639C188.699 44.5526 189.378 44.6627 189.984 44.9558C190.59 45.2489 191.097 45.7121 191.443 46.2885C192.525 48.1605 193.111 50.276 193.145 52.4358C193.18 54.3291 192.944 56.2177 192.446 58.0451C192.225 58.9268 191.939 59.742 191.667 60.5659C191.363 61.3786 191.066 62.1955 190.705 62.9835C190.016 64.5721 189.208 66.1068 188.288 67.5746C184.631 73.5029 179.33 78.2514 173.024 81.248C169.012 83.1203 164.656 84.149 160.227 84.2697C158.489 84.3298 156.754 84.0925 155.096 83.5683C154.76 83.4562 154.446 83.3406 154.153 83.2188C153.861 83.085 153.589 82.9484 153.339 82.8089C152.88 82.5648 152.453 82.2653 152.068 81.9173C151.056 81.0087 151.248 80.2773 152.254 79.799C153.264 79.3311 155.089 79.0839 157.568 78.8363L158.755 78.7086L159.957 78.5486C160.761 78.4265 161.576 78.3248 162.388 78.1733C164.008 77.8881 165.61 77.5069 167.184 77.0317C170.223 76.0907 173.075 74.6347 175.617 72.7278C180.752 68.8845 184.482 63.4725 186.236 57.3192C186.655 55.9172 186.868 54.4622 186.868 52.9995C186.886 51.7923 186.561 50.6046 185.929 49.5742L191.33 48.8669C190.78 51.0439 190.436 53.2675 190.303 55.5084C190.046 59.6459 190.613 63.9003 191.328 67.8095C191.824 70.5954 192.692 73.2326 194.103 75.2601C194.768 76.235 195.61 77.0775 196.585 77.7438C197.65 78.4175 198.809 78.9293 200.025 79.2623C201.412 79.6438 202.821 79.9419 204.244 80.1549C205.76 80.3988 207.268 80.6437 208.688 80.788C211.545 81.0942 214.176 80.978 216.187 79.9967L216.882 85.5633L215.885 85.3748L215.387 85.2768L214.881 85.2176L213.87 85.0955L212.848 85.0444C210.525 84.9565 208.202 85.2274 205.963 85.8476C203.682 86.4847 201.496 87.4174 199.46 88.6216C197.411 89.8279 195.519 91.2819 193.829 92.9504C192.122 94.6443 190.605 96.5186 189.307 98.5401C185.742 104.024 183.639 110.519 182.766 117.156L178.821 115.04C179.057 114.842 179.235 114.586 179.337 114.297C179.501 113.847 179.594 113.375 179.614 112.896C179.645 112.302 179.63 111.706 179.567 111.115L179.283 109.135C179.186 108.473 179.052 107.818 178.881 107.172L178.655 106.193C178.587 105.865 178.458 105.553 178.362 105.231C178.149 104.595 177.967 103.947 177.73 103.317L176.956 101.45C175.833 98.9831 174.438 96.6484 172.796 94.4895C171.114 92.3449 169.211 90.3822 167.118 88.6335C164.474 86.4814 161.597 84.631 158.539 83.1167C158.355 83.0209 158.175 82.9176 157.99 82.8269L157.426 82.58L156.305 82.0749C155.569 81.7028 154.803 81.4559 154.052 81.1549L152.926 80.7074C152.558 80.5755 152.192 80.4566 151.825 80.3639C151.099 80.139 150.322 80.1357 149.595 80.3545C149.416 80.4222 149.255 80.5055 149.127 80.5631C149.124 80.5643 149.122 80.566 149.12 80.5681C149.118 80.5702 149.116 80.5727 149.115 80.5754L149.1 80.6165C149.052 80.7657 149.062 80.9274 149.129 81.0694C149.189 81.1996 149.276 81.3161 149.383 81.4119C149.577 81.5842 149.819 81.6928 150.077 81.7229C150.199 81.7392 150.323 81.7297 150.44 81.695C150.546 81.6747 150.65 81.6468 150.751 81.6115C150.922 81.5472 151.047 81.5066 151.117 81.5519C151.186 81.5943 151.206 81.7282 151.105 81.9563C151.031 82.0958 150.933 82.221 150.815 82.3262C150.673 82.4949 150.489 82.6228 150.281 82.6966C149.781 82.8977 149.227 82.9156 148.716 82.7471C148.338 82.6224 147.998 82.4025 147.731 82.1087C147.539 81.8955 147.388 81.6494 147.284 81.3823C147.165 81.0656 147.111 80.7285 147.126 80.3907C147.135 80.1344 147.219 79.8864 147.367 79.6762L147.737 79.1476C147.932 78.8695 148.159 78.6161 148.415 78.3931C148.558 78.2688 148.709 78.1551 148.869 78.0528C149.039 77.9577 149.215 77.8745 149.396 77.8035C150.252 77.4795 151.164 77.3225 152.08 77.3411C152.796 77.3442 153.51 77.4067 154.215 77.5278L156.155 77.8352L156.643 77.9187L157.121 78.039L158.081 78.2853C160.668 78.9549 163.166 79.927 165.524 81.1813C169.418 83.3518 172.887 86.2044 175.763 89.6019C175.796 89.59 175.826 89.5793 175.864 89.566Z" fill="#65BA36"/>
<path d="M115.473 158.484L117.516 159.623L119.482 160.892L119.971 161.213L120.441 161.563L121.378 162.265C121.688 162.501 122.005 162.729 122.309 162.972L123.197 163.738C124.384 164.753 125.513 165.834 126.579 166.976L128.111 168.746C128.613 169.342 129.055 169.984 129.527 170.601C131.338 173.116 132.873 175.816 134.107 178.656C135.3 181.492 136.204 184.44 136.806 187.456C136.943 188.258 137.11 189.055 137.214 189.862L137.484 192.289L137.603 194.728C137.645 195.541 137.591 196.357 137.589 197.171C137.483 200.432 137.016 203.671 136.198 206.83L135.558 209.053C135.374 209.691 134.965 210.242 134.405 210.604C133.845 210.966 133.173 211.115 132.512 211.022C131.851 210.93 131.246 210.603 130.808 210.102C130.37 209.6 130.129 208.958 130.129 208.294L130.13 208.165C130.136 200.992 130.121 193.595 131.505 186.165C132.186 182.404 133.299 178.734 134.824 175.227C136.381 171.623 138.515 168.294 141.144 165.371C143.841 162.477 147.009 160.056 150.515 158.211C153.917 156.443 157.497 155.034 161.194 154.009C163.012 153.492 164.834 153.05 166.663 152.66C168.497 152.274 170.375 151.934 172.315 151.723C174.298 151.489 176.297 151.43 178.291 151.546C180.382 151.669 182.448 152.058 184.44 152.704C185.096 152.917 185.67 153.327 186.084 153.877C186.498 154.427 186.731 155.091 186.752 155.778C186.772 156.465 186.58 157.141 186.2 157.715C185.82 158.289 185.272 158.732 184.63 158.984L184.558 159.012C181.422 160.174 178.106 160.781 174.76 160.806C171.21 160.828 167.664 160.547 164.162 159.967C160.69 159.488 157.252 158.786 153.87 157.868C152.122 157.386 150.405 156.798 148.729 156.108C147.003 155.411 145.337 154.573 143.749 153.603C142.12 152.614 140.591 151.469 139.184 150.185C137.784 148.895 136.517 147.468 135.401 145.927C133.279 142.949 131.556 139.708 130.276 136.286C127.76 129.712 126.206 122.812 125.661 115.798C125.597 114.923 125.542 114.047 125.512 113.171C125.492 112.733 125.478 112.294 125.473 111.856C125.466 111.413 125.45 111.004 125.459 110.466C125.459 109.284 125.634 108.109 125.98 106.979C126.216 106.232 126.57 105.527 127.027 104.889C127.574 104.136 128.28 103.511 129.096 103.06L129.131 103.041C129.53 102.824 129.968 102.688 130.42 102.64C130.873 102.592 131.33 102.633 131.766 102.761C132.203 102.888 132.61 103.1 132.964 103.385C133.318 103.669 133.612 104.02 133.83 104.418C134.063 104.849 134.204 105.323 134.243 105.811C135.265 119.786 131.642 133.708 123.932 145.431C122.137 148.154 120.01 150.646 117.598 152.848C116.363 153.959 115.04 154.969 113.642 155.869C112.239 156.773 110.754 157.545 109.206 158.175C106.752 159.213 104.095 159.685 101.432 159.557C99.7251 159.494 98.0583 159.023 96.5724 158.184C94.9739 157.171 95.2905 156.471 96.6826 156.145C97.3904 155.941 98.3794 155.816 99.6216 155.579C101.123 155.301 102.604 154.925 104.056 154.455C106.286 153.705 108.393 152.635 110.313 151.28C112.31 149.856 114.134 148.206 115.749 146.363C118.081 143.669 120.082 140.708 121.712 137.543C123.401 134.366 124.773 131.032 125.808 127.588C127.892 120.699 128.639 113.477 128.006 106.31L132.125 108.512C132.126 108.514 132.132 108.523 132.126 108.513L132.11 108.491C132.113 108.495 132.116 108.5 132.119 108.504C132.128 108.515 132.136 108.522 132.131 108.517V108.525C132.108 108.558 132.088 108.594 132.073 108.632C131.965 108.884 131.896 109.151 131.867 109.423C131.812 109.85 131.791 110.281 131.802 110.711L131.863 112.341C131.976 114.557 132.212 116.764 132.535 118.956C133.197 123.334 134.306 127.632 135.843 131.786C136.904 134.736 138.289 137.561 139.972 140.209C140.776 141.453 141.677 142.633 142.667 143.737C143.143 144.268 143.646 144.776 144.174 145.257C144.44 145.491 144.688 145.743 144.961 145.969L145.781 146.645C148.236 148.519 150.988 149.972 153.924 150.944C157.029 151.99 160.217 152.774 163.453 153.289C166.697 153.889 169.978 154.264 173.274 154.411C176.335 154.558 179.396 154.116 182.289 153.109L182.393 158.688C179.529 157.718 176.294 157.559 172.972 157.892C171.31 158.048 169.622 158.322 167.918 158.649C166.211 158.981 164.515 159.354 162.848 159.784C159.277 160.66 155.831 161.981 152.593 163.718C149.446 165.399 146.654 167.669 144.37 170.404C142.108 173.212 140.32 176.368 139.078 179.749C137.798 183.211 136.904 186.803 136.413 190.459C135.587 196.218 135.499 202.166 135.422 208.195L130.534 207.396C133.79 197.839 132.654 186.823 127.781 177.863C127.462 177.312 127.18 176.736 126.833 176.201L125.791 174.597C125.436 174.067 125.03 173.575 124.653 173.061C124.458 172.809 124.278 172.545 124.071 172.303L123.441 171.584C122.607 170.621 121.724 169.699 120.797 168.824C119.823 167.997 118.88 167.131 117.826 166.398C117.32 166.003 116.795 165.635 116.251 165.293C115.708 164.952 115.177 164.589 114.623 164.263L112.933 163.333C112.373 163.014 111.771 162.776 111.193 162.492C108.849 161.406 106.397 160.565 103.878 159.984C97.8755 158.581 91.6423 158.46 85.5894 159.63L85.5261 157.238C89.1508 158.336 92.9553 158.72 96.7274 158.37C98.8685 158.169 99.9554 158.112 99.9464 158.57C99.9321 158.773 99.6492 159.124 99.0396 159.524C98.6697 159.766 98.2826 159.981 97.8814 160.168C97.647 160.282 97.3913 160.397 97.1119 160.504C96.9724 160.557 96.8288 160.619 96.6774 160.667C96.5247 160.711 96.3669 160.755 96.204 160.798C92.4209 161.787 88.4686 161.957 84.6138 161.297C83.9757 161.185 83.3935 160.865 82.9598 160.386C82.5261 159.907 82.2658 159.297 82.2205 158.654C82.1752 158.01 82.3473 157.37 82.7096 156.836C83.0718 156.301 83.6034 155.902 84.2195 155.703L84.4639 155.625C88.2935 154.41 92.2894 153.793 96.3089 153.798C99.6095 153.788 102.897 154.207 106.089 155.043C109.303 155.871 112.417 157.045 115.376 158.545C115.407 158.523 115.437 158.504 115.473 158.484Z" fill="#65BA36"/>
</svg>
