<svg width="56" height="79" viewBox="0 0 56 79" fill="none" xmlns="http://www.w3.org/2000/svg">
<g clip-path="url(#clip0_1_31)">
<mask id="mask0_1_31" style="mask-type:luminance" maskUnits="userSpaceOnUse" x="0" y="0" width="56" height="79">
<path d="M55.7647 0H0V79H55.7647V0Z" fill="white"/>
</mask>
<g mask="url(#mask0_1_31)">
<path d="M9.32263 59.2031H31.6669V22.0487H9.32263V59.2031ZM24.313 51.829H16.6765V29.4229H24.313V51.829Z" fill="#363636"/>
<mask id="mask1_1_31" style="mask-type:alpha" maskUnits="userSpaceOnUse" x="10" y="6" width="35" height="61">
<path d="M15.064 34.715L27.8824 36.7791L40.0458 34.9964" stroke="#65BA36" stroke-width="58.0882"/>
</mask>
<g mask="url(#mask1_1_31)">
<path d="M16.6764 31.9755V39.3496L27.9899 40.7678V33.3936L16.6764 31.9755Z" fill="#FDCC82"/>
</g>
<mask id="mask2_1_31" style="mask-type:alpha" maskUnits="userSpaceOnUse" x="10" y="6" width="35" height="61">
<path d="M15.064 34.715L27.8824 36.7791L40.0458 34.9964" stroke="#65BA36" stroke-width="58.0882"/>
</mask>
<g mask="url(#mask2_1_31)">
<path d="M39.3034 31.9755V39.3496L27.9899 40.7678V33.3936L39.3034 31.9755Z" fill="#FF9600"/>
</g>
<path d="M39.0204 22.0487H35.3435V29.4228H39.0204V59.2031H46.3742V29.4228V22.0487H39.0204Z" fill="#363636"/>
<mask id="mask3_1_31" style="mask-type:alpha" maskUnits="userSpaceOnUse" x="3" y="15" width="24" height="60">
<path d="M8.42085 44.285L16.7481 45.5986L24.8883 45.0356" stroke="#65BA36" stroke-width="58.0882"/>
</mask>
<g mask="url(#mask3_1_31)">
<path d="M9.32264 41.0513L16.6765 41.9022V49.56L9.32264 48.709V41.0513Z" fill="#FFCA83"/>
</g>
<mask id="mask4_1_31" style="mask-type:alpha" maskUnits="userSpaceOnUse" x="3" y="15" width="24" height="60">
<path d="M8.42085 44.285L16.7481 45.5986L24.8883 45.0356" stroke="#65BA36" stroke-width="58.0882"/>
</mask>
<g mask="url(#mask4_1_31)">
<path d="M24.3131 41.0513L16.6765 41.9022V49.56L24.3131 48.709V41.0513Z" fill="#FF9600"/>
</g>
<mask id="mask5_1_31" style="mask-type:alpha" maskUnits="userSpaceOnUse" x="30" y="15" width="21" height="60">
<path d="M31.2507 45.1295L39.1101 44.848L46.9696 44.0036" stroke="#65BA36" stroke-width="58.0882"/>
</mask>
<g mask="url(#mask5_1_31)">
<path d="M31.6668 41.0513L39.0206 41.9022V49.56L31.6668 48.709V41.0513Z" fill="#FFCA83"/>
</g>
<mask id="mask6_1_31" style="mask-type:alpha" maskUnits="userSpaceOnUse" x="30" y="15" width="21" height="60">
<path d="M31.2507 45.1295L39.1101 44.848L46.9696 44.0036" stroke="#65BA36" stroke-width="58.0882"/>
</mask>
<g mask="url(#mask6_1_31)">
<path d="M46.3743 41.0513L39.0205 41.9022V49.56L46.3743 48.709V41.0513Z" fill="#FF9600"/>
</g>
</g>
</g>
<defs>
<clipPath id="clip0_1_31">
<rect width="55.7647" height="79" fill="white"/>
</clipPath>
</defs>
</svg>
